<?xml version="1.0" encoding="UTF-8"?>
<svg width="20px" height="20px" viewBox="0 0 20 20" version="1.1" xmlns="http://www.w3.org/2000/svg" xmlns:xlink="http://www.w3.org/1999/xlink">
    <!-- Generator: Sketch 60.1 (88133) - https://sketch.com -->
    <title>infoIcon</title>
    <desc>Created with Sketch.</desc>
    <g id="Retourenassistent-Eng" stroke="none" stroke-width="1" fill="none" fill-rule="evenodd">
        <g id="iPhone-11-Pro---RA" transform="translate(-333.000000, -46.000000)" fill="#009EDC">
            <g id="Group-4" transform="translate(20.000000, 44.000000)">
                <g id="Group-3">
                    <g id="Interface,-Essential/question-3-circle" transform="translate(311.000000, 0.000000)">
                        <g id="Group" fill="none" transform="translate(-0.005000, -0.005000)">
                            <path d="M12.005,12.7163763 L13.3325529,11.9788191 C13.9950864,11.6107986 14.406,10.9124943 14.406,10.1546093 C14.3275186,8.89429889 13.2466627,7.93352719 11.985842,8.00333333 C10.8592577,7.95656591 9.85884916,8.71812188 9.604,9.8164985" id="Path" stroke="#323232" stroke-width="1.5" stroke-linecap="round" stroke-linejoin="round"></path>
                            <circle id="Oval" stroke="#323232" stroke-width="1.5" stroke-linecap="round" stroke-linejoin="round" cx="12.005" cy="12.005" r="9.00375"></circle>
                            <path d="M12.1051717,15.9067551 C12.1050999,15.9619727 12.0603043,16.0066905 12.0050867,16.0066666 C11.9498691,16.0066427 11.9051124,15.9618859 11.9050885,15.9066683 C11.9050646,15.8514507 11.9497824,15.8066552 12.005,15.8065833 C12.0315778,15.8065487 12.0570769,15.8170914 12.0758703,15.8358847 C12.0946636,15.8546782 12.1052063,15.8801773 12.1051717,15.9067551" id="Path" stroke="#323232" stroke-width="1.5" stroke-linecap="round" stroke-linejoin="round"></path>
                            <rect id="Rectangle" x="0" y="0" width="24.01" height="24.01"></rect>
                        </g>
                    </g>
                </g>
            </g>
        </g>
    </g>
</svg>