<svg xmlns="http://www.w3.org/2000/svg"
    width="20"
    height="20"
    viewBox="0 0 20 20">
  <path
      d="M9.0287,1.5395L1.5144,5.7142C1.1969,5.8905 1,6.2252 1,6.5883V6.9999C1,7.5522 1.4477,7.9999 2,7.9999H3V14.9999H2.75C2.3358,14.9999 2,15.3357 2,15.7499V15.9999C2,16.2761 1.7761,16.4999 1.5,16.4999C1.2239,16.4999 1,16.7238 1,16.9999V17.2499C1,17.6641 1.3358,17.9999 1.75,17.9999H18.25C18.6642,17.9999 19,17.6641 19,17.2499V16.9999C19,16.7238 18.7761,16.4999 18.5,16.4999C18.2239,16.4999 18,16.2761 18,15.9999V15.7499C18,15.3357 17.6642,14.9999 17.25,14.9999H17V7.9999H18C18.5523,7.9999 19,7.5522 19,6.9999V6.5883C19,6.2252 18.8031,5.8905 18.4856,5.7142L10.9713,1.5395C10.3672,1.204 9.6328,1.204 9.0287,1.5395ZM6,14.9999H8.5V7.9999H6V14.9999ZM14,7.9999V14.9999H11.5V7.9999H14Z"
      fill="#CCCFDB"
      fill-rule="evenodd" />
      <!-- android:fillType="evenOdd" -->
</svg>
