<?xml version="1.0" encoding="UTF-8"?>
<svg width="18px" height="17px" viewBox="0 0 18 17" version="1.1" xmlns="http://www.w3.org/2000/svg" xmlns:xlink="http://www.w3.org/1999/xlink">
    <!-- Generator: Sketch 60.1 (88133) - https://sketch.com -->
    <title>icon/content/create_24px</title>
    <desc>Created with Sketch.</desc>
    <g id="Retourenassistent-Eng" stroke="none" stroke-width="1" fill="none" fill-rule="evenodd">
        <g id="iPhone-8---RA-Warning-(Alternativ-AB-Test)" transform="translate(-340.000000, -832.000000)" fill="#009EDC">
            <g id="Group-7" transform="translate(15.000000, 830.000000)">
                <g id="Group-5-Copy-2" transform="translate(266.000000, 0.000000)">
                    <g id="Interface,-Essential/Pen,-Edit" transform="translate(58.000000, 0.000000)">
                        <g id="Group" fill="none" transform="translate(-0.000000, -0.000000)">
                            <g id="Path">
                                <polygon points="0 0 21.0000001 0 21.0000001 20.0000001 0 20.0000001"></polygon>
                                <line x1="15.3475001" y1="8.43333337" x2="12.1450001" y2="5.38333336" stroke="#323232" stroke-width="1.5" stroke-linecap="round" stroke-linejoin="round"></line>
                                <path d="M5.46962502,17.5000001 L2.62500001,17.5000001 L2.62500001,14.7908334 C2.62500001,14.5700001 2.71687501,14.3575001 2.88137501,14.2016667 L14.5486251,3.08916668 C14.8907501,2.76333334 15.4446251,2.76333334 15.7858751,3.08916668 L17.7555001,4.96500002 C18.0976251,5.29083336 18.0976251,5.81833336 17.7555001,6.14333336 L6.08825003,17.2558334 C5.92462502,17.4125001 5.70150002,17.5000001 5.46962502,17.5000001 L5.46962502,17.5000001 Z" stroke="#323232" stroke-width="1.5" stroke-linecap="round" stroke-linejoin="round"></path>
                            </g>
                        </g>
                    </g>
                </g>
            </g>
        </g>
    </g>
</svg>